<svg width="202" height="40" viewBox="0 0 202 40" fill="none" xmlns="http://www.w3.org/2000/svg">
<path d="M0.710211 1.3536C0.186955 1.92229 0.117188 3.69526 0.117188 20.1203V38.2515L0.989281 39.0543C1.44277 39.5226 2.14044 39.8906 2.48928 39.8906C3.32649 39.8906 4.65207 38.5191 4.65207 37.6828C4.65207 36.5454 5.03579 36.5119 6.5358 37.5155C8.4544 38.7867 12.0125 39.8906 14.1753 39.8906C16.1637 39.8906 19.4777 38.8536 21.5707 37.6159C23.6986 36.3447 25.4777 34.3375 26.6986 31.929C27.6405 29.9553 27.78 29.4201 27.78 26.677C27.78 23.9004 27.6753 23.3987 26.6288 21.3246C23.9428 15.9053 17.8032 12.7943 11.9428 13.7978C9.46603 14.2327 8.48928 14.6007 6.5358 15.8719C5.73347 16.3737 5.00091 16.6747 4.86138 16.5744C4.75672 16.4406 4.65207 13.0953 4.65207 9.11453C4.65207 2.52443 4.58231 1.82193 4.02417 1.32014C3.15207 0.584198 1.40789 0.617649 0.710211 1.3536ZM18.7102 18.9495C24.1521 21.9937 25.0939 28.7845 20.6288 32.9326C16.9311 36.4116 11.1056 36.3781 7.44277 32.8656C5.52417 31.0258 4.82649 29.3866 4.82649 26.677C4.82649 24.6698 4.96603 24.0677 5.90789 22.4954C7.02417 20.5887 9.29161 18.7822 11.4195 18.1466C13.2684 17.6114 17.0707 18.0128 18.7102 18.9495Z" fill="white"/>
<path d="M119.141 1.15259C118.827 1.45366 118.723 6.13698 118.723 20.1869V38.8199L119.595 39.3551C120.746 40.091 121.269 40.0241 122.106 39.1209C122.804 38.4184 122.874 37.9501 122.978 31.36C123.083 24.8033 123.153 24.2347 123.885 22.8966C125.839 19.3841 129.397 17.5442 133.409 17.9456C136.653 18.2467 138.92 19.6851 140.63 22.4617C141.571 23.967 141.571 24.1008 141.746 31.2262C141.885 37.7494 141.99 38.5522 142.583 39.1878C143.42 40.091 144.606 40.091 145.444 39.1878C146.037 38.5522 146.106 37.8163 146.211 32.397C146.385 23.5322 145.653 20.9229 142.025 17.4438C137.525 13.1285 130.06 12.3926 124.827 15.8047C122.874 17.0424 122.909 17.1093 122.909 9.18113C122.909 2.52413 122.839 1.82163 122.281 1.31985C121.513 0.650803 119.734 0.5839 119.141 1.15259Z" fill="white"/>
<path d="M186.64 1.35343C186.117 1.92212 186.047 3.72854 186.047 20.254V38.5189L186.814 39.2214C187.791 40.0577 188.489 40.0577 189.466 39.2214L190.233 38.5189V20.1202C190.233 0.0153389 190.303 0.751289 188.21 0.751289C187.652 0.751289 186.954 1.01891 186.64 1.35343Z" fill="white"/>
<path d="M197.105 1.35357C196.616 1.8888 196.512 2.82547 196.512 7.37498C196.512 12.3594 196.581 12.8612 197.209 13.4633C198.151 14.3665 199.372 14.2996 200.279 13.3629C201.012 12.627 201.047 12.259 201.047 7.50879C201.047 3.3607 200.942 2.25678 200.488 1.58773C199.791 0.550712 197.942 0.450355 197.105 1.35357Z" fill="white"/>
<path d="M43.8961 13.9314C34.5124 15.7713 29.9078 25.9408 35.0357 33.5679C38.1403 38.2512 44.838 40.9608 49.6171 39.5224C51.6752 38.8868 54.1868 37.7829 54.6054 37.3145C55.2682 36.5451 56.2799 36.7793 56.2799 37.716C56.2799 38.6192 57.5008 39.8904 58.3729 39.8904C58.6868 39.8904 59.3148 39.5224 59.7334 39.0875C60.5008 38.3181 60.5008 38.1843 60.3961 30.7914L60.2915 23.298L59.1403 21.0902C57.8496 18.5813 55.1636 15.972 52.7217 14.9015C51.431 14.2994 47.245 13.3962 46.3031 13.4965C46.1287 13.53 45.0473 13.6972 43.8961 13.9314ZM50.9427 18.7485C52.8264 19.6852 55.1287 22.261 55.6171 23.9671C56.5589 27.212 55.8961 30.0889 53.6287 32.4974C49.8613 36.5117 43.5124 36.5451 39.7799 32.5309C37.5473 30.1558 36.8496 26.9778 37.8613 23.7998C38.5938 21.4247 41.5589 18.7485 44.2101 18.1129C45.9892 17.6781 49.3729 17.9791 50.9427 18.7485Z" fill="white"/>
<path d="M67.8968 13.8648C67.4782 14.0655 66.9549 14.6676 66.7805 15.2363C66.2223 16.6747 66.2572 37.3482 66.8154 38.3184C67.7223 39.991 69.013 40.292 70.1293 39.1212C70.827 38.4187 70.8968 37.9504 71.0014 31.3603L71.1061 24.3353L72.1177 22.5623C73.6177 19.9865 76.1642 18.3139 79.1991 17.9459C81.6061 17.6449 82.4433 17.0427 82.4433 15.6377C82.4433 13.9651 81.1526 13.363 78.3968 13.7978C75.8851 14.1993 74.6991 14.6342 72.8154 15.8384C71.2805 16.842 70.9316 16.8086 70.9316 15.6043C70.9316 15.2028 70.513 14.5338 70.0247 14.1658C68.9782 13.363 68.9433 13.363 67.8968 13.8648Z" fill="white"/>
<path d="M95.6981 13.9317C94.6516 14.1658 93.1865 14.6007 92.4539 14.9687C90.1516 16.0392 87.4307 18.6819 86.2098 21.0904C85.1284 23.1645 85.0586 23.5659 85.0586 26.677C85.0586 29.5873 85.1632 30.2564 86.0005 31.929C87.7446 35.5084 91.1981 38.1846 95.733 39.5226C97.233 39.9575 100.268 39.991 101.349 39.5896C101.803 39.4223 102.535 39.1881 103.024 39.0878C103.512 38.9874 104.803 38.3853 105.919 37.7497C107.838 36.6458 107.907 36.6123 107.907 37.3148C107.907 38.2849 109.373 39.8906 110.245 39.8906C110.628 39.8906 111.291 39.5226 111.71 39.0878C112.477 38.2849 112.512 38.1846 112.373 30.7916L112.268 23.3317L111.117 21.0904C109.861 18.615 107.14 15.9722 104.698 14.9018C103.338 14.2662 99.326 13.4299 98.1051 13.4968C97.826 13.4968 96.7446 13.6975 95.6981 13.9317ZM103.163 18.9495C106.338 20.7225 107.907 23.2983 107.907 26.7104C107.907 29.3866 107 31.3268 104.977 33.1333C99.047 38.3853 89.3493 34.371 89.3493 26.677C89.3493 22.7296 91.9656 19.3844 96.047 18.1132C97.6865 17.578 101.559 18.0463 103.163 18.9495Z" fill="white"/>
<path d="M163.165 13.9648C158.176 15.0019 154.583 18.1129 152.944 22.7628C151.199 27.6803 152.944 33.3672 157.199 36.6455C158.944 38.017 159.397 38.2512 162.258 39.2213C165.327 40.2249 168.781 39.9573 172.234 38.385C174.537 37.3145 177.467 34.4376 178.583 32.1294C179.49 30.2561 179.595 29.6539 179.595 26.6767C179.595 23.6994 179.49 23.0973 178.583 21.224C177.432 18.8154 174.502 16.0054 172.025 14.9015C170.56 14.2324 167.037 13.4296 165.851 13.4965C165.537 13.4965 164.316 13.7307 163.165 13.9648ZM170.211 18.7485C178.618 22.8631 176.246 34.6383 166.862 35.4412C161.42 35.943 156.746 31.8618 156.746 26.6767C156.781 22.6959 159.606 19.083 163.513 18.1129C165.292 17.678 168.676 17.9791 170.211 18.7485Z" fill="white"/>
</svg>
