<svg width="185" height="40" viewBox="0 0 185 40" fill="none" xmlns="http://www.w3.org/2000/svg">
<path d="M0.545582 0.617867C0.0641861 1.18826 0 2.96655 0 19.4409V37.6264L0.802326 38.4317C1.21954 38.9014 1.8614 39.2705 2.18233 39.2705C2.95256 39.2705 4.17209 37.8948 4.17209 37.056C4.17209 35.9152 4.52512 35.8817 5.90512 36.8883C7.67024 38.1633 10.9437 39.2705 12.9335 39.2705C14.7628 39.2705 17.8116 38.2304 19.7372 36.9889C21.6949 35.7139 23.3316 33.7008 24.4549 31.285C25.3214 29.3054 25.4498 28.7685 25.4498 26.0172C25.4498 23.2323 25.3535 22.7291 24.3907 20.6488C21.9195 15.2133 16.2712 12.0929 10.8795 13.0994C8.60093 13.5356 7.70233 13.9047 5.90512 15.1797C5.16698 15.683 4.49302 15.985 4.36465 15.8843C4.26837 15.7501 4.17209 12.3948 4.17209 8.40208C4.17209 1.79221 4.10791 1.0876 3.59442 0.584316C2.79209 -0.153843 1.18744 -0.120289 0.545582 0.617867ZM17.1056 18.2666C22.1121 21.3198 22.9786 28.131 18.8707 32.2916C15.4688 35.781 10.1093 35.7475 6.73954 32.2245C4.97442 30.3791 4.33256 28.735 4.33256 26.0172C4.33256 24.0041 4.46093 23.4001 5.32744 21.8231C6.35442 19.9106 8.44047 18.0988 10.3981 17.4613C12.0991 16.9244 15.5972 17.3271 17.1056 18.2666Z" fill="white"/>
<path d="M109.502 0.416332C109.213 0.718307 109.117 5.41568 109.117 19.5078V38.1966L109.92 38.7334C110.979 39.4716 111.46 39.4045 112.23 38.4986C112.872 37.794 112.936 37.3242 113.033 30.7144C113.129 24.138 113.193 23.5676 113.867 22.2255C115.664 18.7025 118.938 16.8571 122.628 17.2598C125.613 17.5617 127.699 19.0045 129.272 21.7894C130.138 23.2992 130.138 23.4334 130.299 30.5801C130.427 37.1229 130.523 37.9282 131.069 38.5657C131.839 39.4716 132.93 39.4716 133.7 38.5657C134.246 37.9282 134.31 37.19 134.406 31.7545C134.567 22.863 133.893 20.2459 130.555 16.7565C126.415 12.4282 119.547 11.69 114.733 15.1124C112.936 16.3538 112.968 16.4209 112.968 8.46897C112.968 1.79199 112.904 1.08739 112.391 0.584099C111.685 -0.086956 110.048 -0.15406 109.502 0.416332Z" fill="white"/>
<path d="M171.6 0.617828C171.119 1.18822 171.055 3.00006 171.055 19.5751V37.8948L171.761 38.5994C172.659 39.4382 173.301 39.4382 174.2 38.5994L174.906 37.8948V19.4409C174.906 -0.724277 174.97 0.0138817 173.044 0.0138817C172.531 0.0138817 171.889 0.282303 171.6 0.617828Z" fill="white"/>
<path d="M181.229 0.618046C180.78 1.15489 180.684 2.09436 180.684 6.65752C180.684 11.6569 180.748 12.1602 181.325 12.7641C182.192 13.67 183.315 13.6029 184.15 12.6634C184.824 11.9253 184.856 11.5562 184.856 6.79173C184.856 2.6312 184.759 1.52397 184.342 0.852914C183.7 -0.187218 181.999 -0.287876 181.229 0.618046Z" fill="white"/>
<path d="M40.2769 13.2339C31.6439 15.0792 27.4076 25.2792 32.1252 32.9292C34.9815 37.6266 41.1434 40.3444 45.5401 38.9016C47.4336 38.2641 49.7443 37.1569 50.1294 36.6871C50.7392 35.9154 51.6699 36.1503 51.6699 37.0898C51.6699 37.9957 52.7932 39.2707 53.5955 39.2707C53.8843 39.2707 54.462 38.9016 54.8471 38.4654C55.5532 37.6937 55.5532 37.5595 55.4569 30.1444L55.3606 22.6286L54.3015 20.4141C53.1141 17.8977 50.6429 15.2806 48.3964 14.2069C47.209 13.6029 43.3578 12.697 42.4913 12.7977C42.3308 12.8312 41.3359 12.999 40.2769 13.2339ZM46.7597 18.0654C48.4927 19.0049 50.6108 21.5885 51.0601 23.2996C51.9266 26.5542 51.3169 29.4398 49.2308 31.8556C45.7648 35.8819 39.9239 35.9154 36.4899 31.8891C34.4359 29.5069 33.7941 26.3194 34.7248 23.1319C35.3987 20.7496 38.1266 18.0654 40.5657 17.4279C42.2025 16.9917 45.3155 17.2937 46.7597 18.0654Z" fill="white"/>
<path d="M62.3574 13.1667C61.9722 13.3681 61.4908 13.972 61.3304 14.5424C60.8169 15.9852 60.849 36.7207 61.3625 37.6937C62.1969 39.3714 63.3843 39.6733 64.4113 38.499C65.0532 37.7944 65.1174 37.3246 65.2136 30.7148L65.3099 23.6687L66.2406 21.8904C67.6206 19.3069 69.9634 17.6293 72.7555 17.2602C74.9699 16.9582 75.7402 16.3543 75.7402 14.945C75.7402 13.2674 74.5527 12.6635 72.0174 13.0996C69.7067 13.5023 68.6155 13.9385 66.8825 15.1464C65.4704 16.1529 65.1495 16.1194 65.1495 14.9115C65.1495 14.5089 64.7643 13.8378 64.315 13.4687C63.3522 12.6635 63.3202 12.6635 62.3574 13.1667Z" fill="white"/>
<path d="M87.9368 13.2337C86.974 13.4685 85.6261 13.9047 84.9522 14.2738C82.834 15.3475 80.3308 17.9981 79.2075 20.4139C78.2126 22.4942 78.1484 22.8968 78.1484 26.0172C78.1484 28.9363 78.2447 29.6073 79.0149 31.285C80.6196 34.8751 83.7968 37.5593 87.9689 38.9014C89.3489 39.3376 92.141 39.3712 93.1359 38.9685C93.5531 38.8008 94.227 38.5659 94.6763 38.4652C95.1256 38.3646 96.3131 37.7606 97.3401 37.1231C99.1052 36.0159 99.1694 35.9823 99.1694 36.687C99.1694 37.66 100.517 39.2705 101.32 39.2705C101.673 39.2705 102.282 38.9014 102.667 38.4652C103.374 37.66 103.406 37.5593 103.277 30.1442L103.181 22.662L102.122 20.4139C100.967 17.931 98.4633 15.2804 96.2168 14.2067C94.9652 13.5692 91.2745 12.7304 90.1512 12.7975C89.8945 12.7975 88.8996 12.9988 87.9368 13.2337ZM94.8047 18.2666C97.7252 20.0448 99.1694 22.6284 99.1694 26.0508C99.1694 28.735 98.3349 30.681 96.4735 32.4929C91.0177 37.7606 82.0959 33.7343 82.0959 26.0172C82.0959 22.058 84.5029 18.7027 88.2577 17.4277C89.7661 16.8909 93.3284 17.3606 94.8047 18.2666Z" fill="white"/>
<path d="M150.004 13.2672C145.415 14.3073 142.109 17.4277 140.601 22.0915C138.996 27.0237 140.601 32.7277 144.516 36.0159C146.121 37.3915 146.538 37.6264 149.17 38.5994C151.994 39.606 155.171 39.3376 158.348 37.7606C160.466 36.6869 163.162 33.8014 164.189 31.4862C165.024 29.6073 165.12 29.0034 165.12 26.0172C165.12 23.031 165.024 22.427 164.189 20.5481C163.13 18.1323 160.434 15.3139 158.156 14.2066C156.808 13.5356 153.567 12.7303 152.475 12.7974C152.187 12.7974 151.063 13.0323 150.004 13.2672ZM156.487 18.0652C164.221 22.1922 162.039 34.0027 153.406 34.808C148.4 35.3112 144.099 31.2178 144.099 26.0172C144.131 22.0244 146.731 18.4007 150.325 17.4277C151.962 16.9915 155.075 17.2935 156.487 18.0652Z" fill="white"/>
</svg>
